<svg height="512" viewBox="0 0 192 192" width="512" xmlns="http://www.w3.org/2000/svg" xmlns:xlink="http://www.w3.org/1999/xlink"><linearGradient id="New_Gradient_Swatch_4" gradientUnits="userSpaceOnUse" x1="64" x2="128" y1="128" y2="64"><stop offset="0" stop-color="#34cdfa"/><stop offset="1" stop-color="#e8d9f1"/></linearGradient><path d="m88 144h16v48h-16z" fill="#01c0f9"/><path d="m68 0a12 12 0 0 1 12 12v61a0 0 0 0 1 0 0h-24a0 0 0 0 1 0 0v-61a12 12 0 0 1 12-12z" fill="#67d9fb"/><path d="m124 0a12 12 0 0 1 12 12v61a0 0 0 0 1 0 0h-24a0 0 0 0 1 0 0v-61a12 12 0 0 1 12-12z" fill="#67d9fb"/><path d="m144 64h-96a8 8 0 0 0 -8 8v40a40.045 40.045 0 0 0 40 40h32a40.045 40.045 0 0 0 40-40v-40a8 8 0 0 0 -8-8z" fill="#ccf2fe"/><path d="m136 136h-32a40.045 40.045 0 0 1 -40-40v-32h-16a8 8 0 0 0 -8 8v40a40.045 40.045 0 0 0 40 40h32a39.971 39.971 0 0 0 32.665-16.956 39.98 39.98 0 0 1 -8.665.956z" fill="#99e6fd"/><path d="m40 88h112v16h-112z" fill="url(#New_Gradient_Swatch_4)"/></svg>