<svg height="512" viewBox="0 0 192 192" width="512" xmlns="http://www.w3.org/2000/svg" xmlns:xlink="http://www.w3.org/1999/xlink"><linearGradient id="New_Gradient_Swatch_4" gradientUnits="userSpaceOnUse" x1="51.382" x2="140.618" y1="142.696" y2="53.459"><stop offset="0" stop-color="#34cdfa"/><stop offset="1" stop-color="#e8d9f1"/></linearGradient><path d="m96 32a56 56 0 0 0 -24 106.6v21.4a8 8 0 0 0 8 8h32a8 8 0 0 0 8-8v-21.4a56 56 0 0 0 -24-106.6z" fill="url(#New_Gradient_Swatch_4)"/><path d="m120 144h-48a8 8 0 0 0 -8 8v24a16 16 0 0 0 16 16h32a16 16 0 0 0 16-16v-24a8 8 0 0 0 -8-8z" fill="#ccf2fe"/><path d="m96 184a16 16 0 0 1 -16-16v-24h-8a8 8 0 0 0 -8 8v24a16 16 0 0 0 16 16h32a15.98 15.98 0 0 0 13.842-8z" fill="#99e6fd"/><circle cx="120" cy="64" fill="#fff" r="8"/><path d="m64 152h64v8h-64z" fill="#34cdfa"/><path d="m64 168h64v8h-64z" fill="#34cdfa"/><path d="m64 152h16v8h-16z" fill="#01c0f9"/><path d="m64 168h16v8h-16z" fill="#01c0f9"/><g fill="#67d9fb"><path d="m88 0h16v16h-16z"/><path d="m48 10.718h16v16h-16z" transform="matrix(.866 -.5 .5 .866 -1.856 30.508)"/><path d="m18.718 40h16v16h-16z" transform="matrix(.5 -.866 .866 .5 -28.21 47.138)"/><path d="m8 80h16v16h-16z"/><path d="m18.718 120h16v16h-16z" transform="matrix(.866 -.5 .5 .866 -60.42 30.508)"/><path d="m157.282 120h16v16h-16z" transform="matrix(.5 -.866 .866 .5 -28.21 207.138)"/><path d="m168 80h16v16h-16z"/><path d="m157.282 40h16v16h-16z" transform="matrix(.866 -.5 .5 .866 -1.856 89.071)"/><path d="m128 10.718h16v15.999h-16z" transform="matrix(.5 -.866 .866 .5 51.787 127.136)"/></g></svg>