<svg height="512" viewBox="0 0 192 192" width="512" xmlns="http://www.w3.org/2000/svg" xmlns:xlink="http://www.w3.org/1999/xlink"><linearGradient id="New_Gradient_Swatch_4" gradientUnits="userSpaceOnUse" x1="54.009" x2="138.746" y1="123.307" y2="38.57"><stop offset="0" stop-color="#34cdfa"/><stop offset="1" stop-color="#e8d9f1"/></linearGradient><path d="m144 192h-96a8 8 0 0 1 -8-8v-32h16v24h80v-24h16v32a8 8 0 0 1 -8 8z" fill="#ccf2fe"/><path d="m88 152h16v32h-16z" fill="#ccf2fe"/><path d="m138.006 37.856a4 4 0 0 0 -4.889-1.022l-18.788 9.5-14.529-43.599a4 4 0 0 0 -7.472-.311l-22.146 51.665-16.159-10.335a4 4 0 0 0 -5.4 1.032c-7.223 10.026-12.623 28.972-12.623 39.214 0 31.1 24.112 52 60 52s60-20.9 60-52c0-12.982-8.408-34.544-17.994-46.144z" fill="url(#New_Gradient_Swatch_4)"/><path d="m72 104c0-13.255 24-40 24-40s24 26.745 24 40a24 24 0 0 1 -48 0z" fill="#fff"/></svg>