<svg height="512" viewBox="0 0 192 192" width="512" xmlns="http://www.w3.org/2000/svg" xmlns:xlink="http://www.w3.org/1999/xlink"><linearGradient id="New_Gradient_Swatch_4" gradientUnits="userSpaceOnUse" x1="30" x2="106" y1="134" y2="58"><stop offset="0" stop-color="#34cdfa"/><stop offset="1" stop-color="#e8d9f1"/></linearGradient><path d="m72 0a40.045 40.045 0 0 0 -40 40v112a40 40 0 0 0 80 0v-112a40.045 40.045 0 0 0 -40-40z" fill="#ccf2fe"/><path d="m88 184a40.045 40.045 0 0 1 -40-40v-112a39.936 39.936 0 0 1 14.594-30.872 40.063 40.063 0 0 0 -30.594 38.872v112a39.979 39.979 0 0 0 65.406 30.872 39.9 39.9 0 0 1 -9.406 1.128z" fill="#99e6fd"/><path d="m64 32v24h-32v16h32v16h-32v16h32v16h-32v16h32v24h16v-128z" fill="url(#New_Gradient_Swatch_4)"/><g fill="#34cdfa"><path d="m152 56v-16h-16v16h-16v16h16v16h16v-16h16v-16z"/><path d="m120 120h48v16h-48z"/></g></svg>