<svg height="512" viewBox="0 0 192 192" width="512" xmlns="http://www.w3.org/2000/svg" xmlns:xlink="http://www.w3.org/1999/xlink"><linearGradient id="New_Gradient_Swatch_4" gradientUnits="userSpaceOnUse" x1="73.519" x2="118.481" y1="49.519" y2="4.556"><stop offset="0" stop-color="#34cdfa"/><stop offset="1" stop-color="#e8d9f1"/></linearGradient><path d="m173.961 34.665a8 8 0 0 0 -5.961-2.665h-144a8 8 0 0 0 -7.951 8.883l14.418 129.768a23.976 23.976 0 0 0 23.854 21.349h83.358a23.976 23.976 0 0 0 23.854-21.35l14.418-129.767a8 8 0 0 0 -1.99-6.218z" fill="#e6f9fe"/><path d="m153.679 184h-83.358a23.976 23.976 0 0 1 -23.854-21.349l-11.85-106.651h139.655l1.679-15.117a8 8 0 0 0 -7.951-8.883h-144a8 8 0 0 0 -7.951 8.883l14.418 129.768a23.976 23.976 0 0 0 23.854 21.349h83.358a23.937 23.937 0 0 0 17.955-8.091c-.646.052-1.296.091-1.955.091z" fill="#ccf2fe"/><path d="m104 0h-16a24.027 24.027 0 0 0 -24 24v16h16v-16a8.009 8.009 0 0 1 8-8h16a8.009 8.009 0 0 1 8 8v16h16v-16a24.027 24.027 0 0 0 -24-24z" fill="url(#New_Gradient_Swatch_4)"/><path d="m8 32h176v16h-176z" fill="#34cdfa"/><g fill="#99e6fd"><path d="m88 72h16v96h-16z"/><path d="m83.834 112h96.333v16h-96.333z" transform="matrix(.083 -.997 .997 .083 1.449 241.575)"/><path d="m52 71.834h16v96.333h-16z" transform="matrix(.997 -.083 .083 .997 -9.758 5.397)"/></g></svg>