<svg height="512" viewBox="0 0 192 192" width="512" xmlns="http://www.w3.org/2000/svg" xmlns:xlink="http://www.w3.org/1999/xlink"><linearGradient id="New_Gradient_Swatch_4" gradientTransform="matrix(0 -1 1 0 -8 184)" gradientUnits="userSpaceOnUse" x1="63.657" x2="94.971" y1="119.657" y2="88.343"><stop offset="0" stop-color="#34cdfa"/><stop offset="1" stop-color="#e8d9f1"/></linearGradient><rect fill="#ccf2fe" height="192" rx="8" width="128"/><path d="m32 176a8 8 0 0 1 -8-8v-168h-16a8 8 0 0 0 -8 8v176a8 8 0 0 0 8 8h112a8 8 0 0 0 8-8v-8z" fill="#99e6fd"/><path d="m80 96a15.98 15.98 0 0 0 8 13.842v18.158h16v-18.158a15.995 15.995 0 1 0 -24-13.842z" fill="url(#New_Gradient_Swatch_4)"/><g fill="#34cdfa"><path d="m136 120v-16a8 8 0 0 0 0-16v-16a24 24 0 0 1 0 48z"/><path d="m136 152v-16a40 40 0 0 0 0-80v-16a56 56 0 0 1 0 112z"/></g></svg>