<svg height="512" viewBox="0 0 192 192" width="512" xmlns="http://www.w3.org/2000/svg" xmlns:xlink="http://www.w3.org/1999/xlink"><linearGradient id="New_Gradient_Swatch_4" gradientUnits="userSpaceOnUse" x1="84.686" x2="107.314" y1="92.687" y2="70.059"><stop offset="0" stop-color="#34cdfa"/><stop offset="1" stop-color="#e8d9f1"/></linearGradient><linearGradient id="New_Gradient_Swatch_4-2" x1="76.201" x2="115.799" xlink:href="#New_Gradient_Swatch_4" y1="84.202" y2="44.603"/><linearGradient id="New_Gradient_Swatch_4-3" x1="90.343" x2="101.657" xlink:href="#New_Gradient_Swatch_4" y1="109.657" y2="98.343"/><rect fill="#e6f9fe" height="192" rx="8" width="112" x="40"/><path d="m56 184v-176a8 8 0 0 1 8-8h-16a8 8 0 0 0 -8 8v176a8 8 0 0 0 8 8h16a8 8 0 0 1 -8-8z" fill="#ccf2fe"/><path d="m40 184a8 8 0 0 0 8 8h96a8 8 0 0 0 8-8v-24h-112z" fill="#67d9fb"/><path d="m56 184v-24h-16v24a8 8 0 0 0 8 8h16a8 8 0 0 1 -8-8z" fill="#34cdfa"/><path d="m73.373 81.372 11.313 11.315a16 16 0 0 1 22.628 0l11.313-11.315a32 32 0 0 0 -45.254 0z" fill="url(#New_Gradient_Swatch_4)"/><path d="m96 48a55.634 55.634 0 0 0 -39.6 16.4l11.316 11.316a40 40 0 0 1 56.568 0l11.316-11.316a55.638 55.638 0 0 0 -39.6-16.4z" fill="url(#New_Gradient_Swatch_4-2)"/><circle cx="96" cy="104" fill="url(#New_Gradient_Swatch_4-3)" r="8"/></svg>