<svg height="512" viewBox="0 0 192 192" width="512" xmlns="http://www.w3.org/2000/svg" xmlns:xlink="http://www.w3.org/1999/xlink"><linearGradient id="New_Gradient_Swatch_4" gradientUnits="userSpaceOnUse" x1="81.519" x2="110.481" y1="65.519" y2="36.556"><stop offset="0" stop-color="#34cdfa"/><stop offset="1" stop-color="#e8d9f1"/></linearGradient><linearGradient id="New_Gradient_Swatch_4-2" x1="62.21" x2="129.79" xlink:href="#New_Gradient_Swatch_4" y1="78.21" y2="10.631"/><path d="m88 64h16v40h-16z" fill="#34cdfa"/><rect fill="#99e6fd" height="72" rx="8" width="40" x="76" y="96"/><path d="m88 160v-56a8 8 0 0 1 8-8h-12a8 8 0 0 0 -8 8v56a8 8 0 0 0 8 8h12a8 8 0 0 1 -8-8z" fill="#67d9fb"/><path d="m16 176h16v16h-16z" fill="#34cdfa"/><path d="m160 176h16v16h-16z" fill="#34cdfa"/><path d="m168 152h-144a24.028 24.028 0 0 0 -24 24 8 8 0 0 0 8 8h176a8 8 0 0 0 8-8 24.028 24.028 0 0 0 -24-24z" fill="#e6f9fe"/><path d="m16 168a23.9 23.9 0 0 1 6.057-15.915 24.029 24.029 0 0 0 -22.057 23.915 8 8 0 0 0 8 8h176a8 8 0 0 0 8-8h-168a8 8 0 0 1 -8-8z" fill="#ccf2fe"/><path d="m96 32a24.027 24.027 0 0 0 -24 24h16a8 8 0 0 1 16 0h16a24.027 24.027 0 0 0 -24-24z" fill="url(#New_Gradient_Swatch_4)"/><path d="m96 0a56.063 56.063 0 0 0 -56 56h16a40 40 0 0 1 80 0h16a56.063 56.063 0 0 0 -56-56z" fill="url(#New_Gradient_Swatch_4-2)"/></svg>