<svg height="512" viewBox="0 0 192 192" width="512" xmlns="http://www.w3.org/2000/svg" xmlns:xlink="http://www.w3.org/1999/xlink"><linearGradient id="New_Gradient_Swatch_4" gradientUnits="userSpaceOnUse" x1="128" x2="142.617" y1="56" y2="41.383"><stop offset="0" stop-color="#34cdfa"/><stop offset="1" stop-color="#e8d9f1"/></linearGradient><linearGradient id="New_Gradient_Swatch_4-2" x1="144" x2="165.234" xlink:href="#New_Gradient_Swatch_4" y1="40" y2="18.766"/><rect fill="#67d9fb" height="72" rx="8" width="48" x="16" y="120"/><path d="m113.427 67.574a8 8 0 0 0 -7.6-2.105l-45.253 11.314a8 8 0 0 0 -3.717 13.417l33.943 33.942a8 8 0 0 0 13.418-3.716l11.312-45.255a8 8 0 0 0 -2.103-7.597z" fill="#99e6fd"/><path d="m130.4 141.113-90.512-90.513a8 8 0 0 0 -11.315 0 72 72 0 1 0 101.827 101.826 8 8 0 0 0 0-11.313z" fill="#e6f9fe"/><path d="m127.933 138.649a71.934 71.934 0 0 1 -119.273-49.856 71.974 71.974 0 0 0 121.74 63.633 8 8 0 0 0 0-11.313z" fill="#ccf2fe"/><path d="m152 64h-16a16.019 16.019 0 0 0 -16-16v-16a32.036 32.036 0 0 1 32 32z" fill="url(#New_Gradient_Swatch_4)"/><path d="m184 64h-16a48.054 48.054 0 0 0 -48-48v-16a64.072 64.072 0 0 1 64 64z" fill="url(#New_Gradient_Swatch_4-2)"/></svg>