<svg height="512" viewBox="0 0 192 192" width="512" xmlns="http://www.w3.org/2000/svg" xmlns:xlink="http://www.w3.org/1999/xlink"><linearGradient id="New_Gradient_Swatch_4" gradientUnits="userSpaceOnUse" x1="54.343" x2="137.657" y1="129.657" y2="46.343"><stop offset="0" stop-color="#34cdfa"/><stop offset="1" stop-color="#e8d9f1"/></linearGradient><path d="m80 144h32v48h-32z" fill="#01c0f9"/><path d="m144 8a8 8 0 0 0 -8-8h-80a8 8 0 0 0 -8 8v96h96z" fill="#e6f9fe"/><path d="m72 0h-16a8 8 0 0 0 -8 8v96h16v-96a8 8 0 0 1 8-8z" fill="#ccf2fe"/><g fill="#67d9fb"><path d="m116 0h8v40h-8z"/><path d="m68 0h8v40h-8z"/><path d="m92 0h8v40h-8z"/></g><path d="m144 56h-25.939l-7.361 26.166a8 8 0 0 1 -7.7 5.834h-15a8 8 0 0 1 -7.761-6.06l-6.485-25.94h-25.754a8 8 0 0 0 -8 8v48a8 8 0 0 0 2.431 5.743l33 32a8 8 0 0 0 5.569 2.257h30a8 8 0 0 0 5.569-2.257l33-32a8 8 0 0 0 2.431-5.743v-48a8 8 0 0 0 -8-8z" fill="url(#New_Gradient_Swatch_4)"/></svg>