<svg height="512" viewBox="0 0 192 192" width="512" xmlns="http://www.w3.org/2000/svg" xmlns:xlink="http://www.w3.org/1999/xlink"><linearGradient id="New_Gradient_Swatch_4" gradientUnits="userSpaceOnUse" x1="78" x2="138" y1="94" y2="34"><stop offset="0" stop-color="#34cdfa"/><stop offset="1" stop-color="#e8d9f1"/></linearGradient><path d="m56 56h104v16h-104z" fill="url(#New_Gradient_Swatch_4)"/><path d="m158.044 82.758a8 8 0 0 0 -6.044-2.758h-88v-72a8 8 0 0 0 -8-8h-48a8 8 0 0 0 -8 8v112a8 8 0 0 0 4.422 7.155l42.535 21.268-6.8 34.008a8 8 0 0 0 7.843 9.569h56a8 8 0 0 0 7.914-9.172c-.133-.9-2.671-17.922-5.782-31.608 18.008-2.858 32.68-13.516 42.814-31.251a96.244 96.244 0 0 0 10.974-30.838 8 8 0 0 0 -1.876-6.373z" fill="#ccf2fe"/><path d="m57.813 189.072a8.006 8.006 0 0 1 -1.658-6.641l6.8-47.008-42.533-21.268a8 8 0 0 1 -4.422-7.155v-99a8 8 0 0 1 8-8h-16a8 8 0 0 0 -8 8v112a8 8 0 0 0 4.422 7.155l42.535 21.268-6.8 34.008a8 8 0 0 0 7.843 9.569h16a8 8 0 0 1 -6.187-2.928z" fill="#99e6fd"/><circle cx="32" cy="32" fill="#34cdfa" r="8"/></svg>