<svg height="512" viewBox="0 0 192 192" width="512" xmlns="http://www.w3.org/2000/svg" xmlns:xlink="http://www.w3.org/1999/xlink"><linearGradient id="New_Gradient_Swatch_4" gradientUnits="userSpaceOnUse" x1="38.68" x2="73.32" y1="184.605" y2="149.964"><stop offset="0" stop-color="#34cdfa"/><stop offset="1" stop-color="#e8d9f1"/></linearGradient><path d="m192 48h-36v-44a4 4 0 0 0 -4-4h-32a4 4 0 0 0 -4 4v44h-44a36 36 0 0 0 -36 36v24a4 4 0 0 0 4 4h32a4 4 0 0 0 4-4v-20h116z" fill="#e6f9fe"/><path d="m48 108v-24a36 36 0 0 1 36-36h-12a36 36 0 0 0 -36 36v24a4 4 0 0 0 4 4h12a4 4 0 0 1 -4-4z" fill="#ccf2fe"/><path d="m128 4a4 4 0 0 1 4-4h-12a4 4 0 0 0 -4 4v44h12z" fill="#ccf2fe"/><path d="m176 24h-16v-8h-48v8h-16v-16a8 8 0 0 1 8-8h64a8 8 0 0 1 8 8z" fill="#67d9fb"/><path d="m32 104h48v16h-48z" fill="#67d9fb"/><path d="m61.5 138.193a8 8 0 0 0 -11.006 0c-4.336 4.113-18.494 18.416-18.494 29.807a24 24 0 0 0 48 0c0-11.391-14.158-25.694-18.5-29.807z" fill="url(#New_Gradient_Swatch_4)"/><circle cx="64" cy="168" fill="#fff" r="8"/></svg>