<svg height="512" viewBox="0 0 192 192" width="512" xmlns="http://www.w3.org/2000/svg" xmlns:xlink="http://www.w3.org/1999/xlink"><linearGradient id="New_Gradient_Swatch_4" gradientUnits="userSpaceOnUse" x1="39.172" x2="134.153" y1="132.828" y2="37.847"><stop offset="0" stop-color="#34cdfa"/><stop offset="1" stop-color="#e8d9f1"/></linearGradient><circle cx="96" cy="96" fill="#34cdfa" r="96"/><circle cx="96" cy="96" fill="#e6f9fe" r="80"/><path d="m112 160a79.957 79.957 0 0 1 -63.976-127.975 79.972 79.972 0 1 0 111.952 111.951 79.588 79.588 0 0 1 -47.976 16.024z" fill="#ccf2fe"/><path d="m111.249 32h-43.249a4 4 0 0 0 -4 4v120a4 4 0 0 0 4 4h16a4 4 0 0 0 4-4v-44h24a40.045 40.045 0 0 0 39.989-40.964c-.517-21.836-18.896-39.036-40.74-39.036zm16.751 40a16 16 0 0 1 -16 16h-24v-32h24a16 16 0 0 1 16 16z" fill="url(#New_Gradient_Swatch_4)"/></svg>