<svg height="512" viewBox="0 0 192 192" width="512" xmlns="http://www.w3.org/2000/svg" xmlns:xlink="http://www.w3.org/1999/xlink"><linearGradient id="New_Gradient_Swatch_4" gradientUnits="userSpaceOnUse" x1="64.929" x2="127.071" y1="167.556" y2="105.414"><stop offset="0" stop-color="#34cdfa"/><stop offset="1" stop-color="#e8d9f1"/></linearGradient><rect fill="#34cdfa" height="64" rx="8" width="48" x="24" y="8"/><path d="m181 65.753-80-64a8 8 0 0 0 -10 0l-80 64a8 8 0 0 0 -3 6.247v112a8 8 0 0 0 8 8h160a8 8 0 0 0 8-8v-112a8 8 0 0 0 -3-6.247z" fill="#ccf2fe"/><path d="m32 184v-112a8 8 0 0 1 3-6.247l73-58.4-7-5.6a8 8 0 0 0 -10 0l-80 64a8 8 0 0 0 -3 6.247v112a8 8 0 0 0 8 8h24a8 8 0 0 1 -8-8z" fill="#99e6fd"/><path d="m80 88a16 16 0 0 1 32 0v32h16v-32a32 32 0 0 0 -64 0v32h16z" fill="#e6f9fe"/><path d="m56 116v36a16 16 0 0 0 16 16h48a16 16 0 0 0 16-16v-36a4 4 0 0 0 -4-4h-72a4 4 0 0 0 -4 4z" fill="url(#New_Gradient_Swatch_4)"/></svg>