<svg height="512" viewBox="0 0 192 192" width="512" xmlns="http://www.w3.org/2000/svg" xmlns:xlink="http://www.w3.org/1999/xlink"><linearGradient id="linear-gradient" gradientUnits="userSpaceOnUse" x1="51.087" x2="115.087" y1="196.913" y2="132.913"><stop offset="0" stop-color="#34cdfa"/><stop offset=".98" stop-color="#e8d9f1"/></linearGradient><rect fill="#01c0f9" height="64" rx="8" width="48" x="24" y="8"/><path d="m181 65.753-80-64a8 8 0 0 0 -10 0l-80 64a8 8 0 0 0 -3 6.247v112a8 8 0 0 0 8 8h160a8 8 0 0 0 8-8v-112a8 8 0 0 0 -3-6.247z" fill="#ccf2fe"/><path d="m32 184v-112a8 8 0 0 1 3-6.247l73-58.4-7-5.6a8 8 0 0 0 -10 0l-80 64a8 8 0 0 0 -3 6.247v112a8 8 0 0 0 8 8h24a8 8 0 0 1 -8-8z" fill="#99e6fd"/><path d="m72 112h48v80h-48z" fill="url(#linear-gradient)"/><path d="m128 192h-16v-72h-32v72h-16v-80a8 8 0 0 1 8-8h48a8 8 0 0 1 8 8z" fill="#34cdfa"/><g fill="#67d9fb"><path d="m72 48h48v16h-48z"/><path d="m72 72h48v16h-48z"/></g></svg>