<svg height="512" viewBox="0 0 192 192" width="512" xmlns="http://www.w3.org/2000/svg" xmlns:xlink="http://www.w3.org/1999/xlink"><linearGradient id="New_Gradient_Swatch_4" gradientUnits="userSpaceOnUse" x1="111.172" x2="171.172" y1="71.172" y2="11.172"><stop offset="0" stop-color="#34cdfa"/><stop offset="1" stop-color="#e8d9f1"/></linearGradient><path d="m96 128h48v64h-48z" fill="#99e6fd"/><path d="m96 128h16v64h-16z" fill="#67d9fb"/><path d="m152 32h-80a8 8 0 0 0 -8 8v88a8 8 0 0 0 8 8h112a8 8 0 0 0 8-8v-56a40.045 40.045 0 0 0 -40-40z" fill="#e6f9fe"/><path d="m184 120h-112a8 8 0 0 1 -8-8v16a8 8 0 0 0 8 8h112a8 8 0 0 0 8-8v-16a8 8 0 0 1 -8 8z" fill="#ccf2fe"/><path d="m72 32a40.045 40.045 0 0 0 -40 40v56a8 8 0 0 0 8 8h64a8 8 0 0 0 8-8v-56a40.045 40.045 0 0 0 -40-40z" fill="#67d9fb"/><path d="m48 128v-56a40.068 40.068 0 0 1 32-39.195 40.014 40.014 0 0 0 -48 39.195v56a8 8 0 0 0 8 8h16a8 8 0 0 1 -8-8z" fill="#34cdfa"/><path d="m0 120v16h104a8 8 0 0 0 8-8v-8z" fill="#01c0f9"/><path d="m136 0a8 8 0 0 0 -8 8v80h16v-72h16v-16z" fill="url(#New_Gradient_Swatch_4)"/></svg>