<svg height="512" viewBox="0 0 192 192" width="512" xmlns="http://www.w3.org/2000/svg" xmlns:xlink="http://www.w3.org/1999/xlink"><linearGradient id="linear-gradient" gradientUnits="userSpaceOnUse" x1="76" x2="116" y1="68" y2="28"><stop offset=".207" stop-color="#34cdfa"/><stop offset=".706" stop-color="#e8d9f1"/></linearGradient><path d="m136 0h-80a56.063 56.063 0 0 0 -56 56v56a8 8 0 0 0 8 8h176a8 8 0 0 0 8-8v-56a56.063 56.063 0 0 0 -56-56z" fill="#34cdfa"/><path d="m24 112v-56a56.063 56.063 0 0 1 56-56h-24a56.063 56.063 0 0 0 -56 56v56a8 8 0 0 0 8 8h24a8 8 0 0 1 -8-8z" fill="#01c0f9"/><path d="m192 112h-192v36a8.059 8.059 0 0 0 1.885 5.158c20.292 24.323 55.471 38.842 94.115 38.842s73.823-14.519 94.115-38.842a8.059 8.059 0 0 0 1.885-5.158z" fill="#ccf2fe"/><path d="m120 184c-38.644 0-73.823-14.519-94.115-38.842a8.059 8.059 0 0 1 -1.885-5.158v-28h-24v36a8.059 8.059 0 0 0 1.885 5.158c20.292 24.323 55.471 38.842 94.115 38.842a140.761 140.761 0 0 0 57.292-11.747 147.912 147.912 0 0 1 -33.292 3.747z" fill="#99e6fd"/><path d="m96 24s-8 16-24 8v32l24 16 24-16v-32c-16 8-24-8-24-8z" fill="url(#linear-gradient)"/><path d="m96 84a4 4 0 0 1 -2.219-.672l-24-16a4 4 0 0 1 -1.781-3.328v-32a4 4 0 0 1 5.789-3.578c12.074 6.041 18-4.939 18.633-6.211a4 4 0 0 1 7.149-.014c.658 1.284 6.7 12.2 18.64 6.225a4 4 0 0 1 5.789 3.578v32a4 4 0 0 1 -1.781 3.328l-24 16a4 4 0 0 1 -2.219.672zm-20-22.141 20 13.333 20-13.333v-24.149c-8.952 2.1-15.8-2.051-20-6.733-4.2 4.682-11.046 8.824-20 6.734z" fill="#e6f9fe"/></svg>