<svg id="_20-fire" height="512" viewBox="0 0 192 192" width="512" xmlns="http://www.w3.org/2000/svg" xmlns:xlink="http://www.w3.org/1999/xlink" data-name="20-fire"><linearGradient id="linear-gradient" gradientUnits="userSpaceOnUse" x1="79.029" x2="112.971" y1="152.971" y2="119.029"><stop offset=".14" stop-color="#34cdfa"/><stop offset=".782" stop-color="#e8d9f1"/></linearGradient><g fill="#99e6fd"><path d="m96 0a16 16 0 0 1 16 16v24a0 0 0 0 1 0 0h-32a0 0 0 0 1 0 0v-24a16 16 0 0 1 16-16z"/><path d="m182.1 106.829a8 8 0 0 0 -6.1-2.829h-32a8 8 0 0 0 -8 8v48a8 8 0 0 0 8 8h24a8 8 0 0 0 7.892-6.685l8-48a8.005 8.005 0 0 0 -1.792-6.486z"/><path d="m48 104h-32a8 8 0 0 0 -7.892 9.315l8 48a8 8 0 0 0 7.892 6.685h24a8 8 0 0 0 8-8v-48a8 8 0 0 0 -8-8z"/></g><path d="m136 152v8a8 8 0 0 0 8 8h24a8 8 0 0 0 7.892-6.685l1.552-9.315z" fill="#67d9fb"/><path d="m16.108 161.315a8 8 0 0 0 7.892 6.685h24a8 8 0 0 0 8-8v-8h-41.444z" fill="#67d9fb"/><path d="m96 24a56.063 56.063 0 0 0 -56 56v104a8 8 0 0 0 8 8h96a8 8 0 0 0 8-8v-104a56.063 56.063 0 0 0 -56-56z" fill="#e6f9fe"/><path d="m64 184v-104a56.087 56.087 0 0 1 44-54.692 55.971 55.971 0 0 0 -68 54.692v104a8 8 0 0 0 8 8h24a8 8 0 0 1 -8-8z" fill="#ccf2fe"/><circle cx="96" cy="136" fill="url(#linear-gradient)" r="24"/><path d="m96 168a32 32 0 1 1 32-32 32.036 32.036 0 0 1 -32 32zm0-48a16 16 0 1 0 16 16 16.019 16.019 0 0 0 -16-16z" fill="#99e6fd"/><path d="m32 80h128v16h-128z" fill="#34cdfa"/></svg>